# xmcd
#
# Track frame offsets:
#	150
#	17032
#	33870
#	49302
#	64922
#	79135
#	96275
#	114417
#	130925
#	145687
#	160087
#	174067
#	191987
#	210687
#	229035
#	246800
# Disc length: 3500 seconds
# Revision: 1
# Processed by: cddbd v1.5.2PL0 Copyright (c) Steve Scherf et al.
#
# Submitted via: libkcddb 0.31
#
DISCID=d50daa10
DTITLE=Boi Pirilampo - Boi Pirilampo Arte Popular do Maranhão
DYEAR=1999
DGENRE=
TTITLE0=Vovô - Esqueça
TTITLE1=Oberdan Oliveira - Pirilampo
TTITLE2=Vovô - Terra de Mistérios
TTITLE3=Zacarias - Que Bom é Amar
TTITLE4=Zacarias - Bela Tapúia
TTITLE5=Oberdan Oliveira - Mensageiro da Alegria
TTITLE6=Zacarias - É Por Ti Que Eu Canto
TTITLE7=Zacarias - Como Estrela no Céu
TTITLE8=Samy - Relampiou
TTITLE9=Samy do Cavaco - Clarão da Lua
TTITLE10=Oberdan Oliveira - Sorriso de Menina
TTITLE11=Samy do Cavaco - Não Quero Lágrima
TTITLE12=Vovô - Poesia Pesada
TTITLE13=Zacarias - Jardim da Ilusão
TTITLE14=Vovô - Adeus Moreninha
TTITLE15=Zuza - Provocação
EXTD=
EXTT0=Oberdan Oliveira e J.R.Gonçalves
EXTT1=Serginho Barreto e Oberdan Oliveira
EXTT2=Vovô, Gilberto e Cacá
EXTT3=Josias Sobrinho
EXTT4=Luís Pedro e Augusto Bastos
EXTT5=Wellington Reis
EXTT6=Luís Moraes
EXTT7=Zé Lopes
EXTT8=Serginho Barrêto
EXTT9=José Carlos Dafé e Augusto Bastos
EXTT10=Oberdan Oliveira e J.R.Gonçalves
EXTT11=Samy do Cavaco
EXTT12=Serginho Barreto e Oberdan Oliveira
EXTT13=Chico Viola
EXTT14=Vovô e J.R.Gonçalves
EXTT15=Zuza
PLAYORDER=
